<svg width="404" height="342" viewBox="0 0 404 342" fill="none" xmlns="http://www.w3.org/2000/svg">
<g clip-path="url(#clip0)">
<path opacity="0.5" d="M52.7961 314.724C52.6871 314.724 52.5781 314.66 52.5235 314.532C52.4145 314.341 52.469 314.149 52.6326 314.085L95.0518 285.416C95.2153 285.288 95.3789 285.352 95.4334 285.544C95.5425 285.735 95.488 285.927 95.3244 285.991L52.9052 314.66C52.8507 314.724 52.8507 314.724 52.7961 314.724Z" fill="url(#paint0_linear)"/>
<path d="M127.486 128.641L148.808 2.46443L147.125 1.79208L149.706 0.335332C150.155 -0.000841416 150.94 -0.000841416 151.726 0.447389L321.967 98.6099C323.313 99.3943 324.436 101.523 324.211 102.98L302.777 230.166C302.665 230.838 302.328 231.286 301.879 231.51L299.41 232.967L298.961 230.614H299.073L129.842 133.012C128.383 132.115 127.261 129.986 127.486 128.641Z" fill="url(#paint1_linear)"/>
<path d="M320.956 101.971L323.762 100.738C324.098 101.411 324.211 102.195 324.098 102.867L302.664 230.053C302.552 230.725 302.215 231.173 301.766 231.398L299.297 232.854L298.848 230.501H298.961L290.432 225.571L320.956 101.971Z" fill="url(#paint2_linear)"/>
<path d="M127.036 134.468L297.277 232.63C298.624 233.415 299.746 232.966 299.971 231.622L321.405 104.436C321.63 102.98 320.62 100.963 319.161 100.066L149.032 1.90355C147.685 1.11915 146.563 1.56738 146.339 2.91207L124.904 130.098C124.567 131.554 125.69 133.683 127.036 134.468Z" fill="url(#paint3_linear)"/>
<path d="M151.277 9.97266L315.346 104.661L294.922 224.451L130.965 129.874L151.277 9.97266Z" fill="url(#paint4_linear)"/>
<path d="M21.4351 232.072L189.993 329.226C191.788 330.234 194.594 330.458 196.277 329.45L296.828 271.516C298.4 270.62 298.175 268.939 296.38 267.93L127.822 170.776C126.026 169.768 123.221 169.544 121.537 170.552L20.9862 228.486C19.4151 229.382 19.6395 230.951 21.4351 232.072Z" fill="#BE9E1C" fill-opacity="0.1"/>
<path opacity="0.7" d="M193.247 342C191.788 342 190.217 341.664 188.982 340.879L2.02 233.08C0.785555 232.295 0 231.287 0 230.278C0 229.382 0.561111 228.597 1.57111 227.925L119.741 159.682C121.761 158.561 125.016 158.673 127.26 160.018L314.334 267.818C315.569 268.602 316.354 269.611 316.354 270.619C316.354 271.516 315.793 272.3 314.783 272.972L196.613 341.215C195.716 341.664 194.481 342 193.247 342ZM2.69333 231.959L189.656 339.759C191.451 340.767 194.369 340.991 195.94 340.095L314.11 271.852C314.559 271.628 315.008 271.291 315.008 270.731C315.008 270.171 314.447 269.499 313.661 269.05L126.699 161.251C124.903 160.242 121.986 160.018 120.414 160.915L2.13222 229.158C1.68333 229.382 1.23444 229.718 1.23444 230.278C1.34667 230.839 1.79556 231.511 2.69333 231.959Z" fill="#FFE2A6"/>
<path d="M20.0879 194.643L29.4023 199.461L122.547 145.786C124.118 144.889 126.811 145.001 128.607 146.01L289.309 238.681C290.88 237.785 297.838 234.423 297.838 234.423L294.471 243.276C294.359 243.724 294.022 244.06 293.573 244.284L195.491 300.873C193.92 301.77 191.227 301.658 189.431 300.649L24.8012 205.849C24.0157 205.4 23.5668 204.952 23.4546 204.392L20.0879 194.643Z" fill="url(#paint5_linear)"/>
<path d="M21.4351 196.212L189.993 293.366C191.788 294.375 194.594 294.599 196.277 293.59L296.828 235.657C298.4 234.76 298.175 233.079 296.38 232.071L127.822 134.917C126.026 133.908 123.221 133.684 121.537 134.693L20.9862 192.626C19.4151 193.523 19.6395 195.092 21.4351 196.212Z" fill="url(#paint6_linear)"/>
<path d="M296.828 233.864L196.277 291.798C194.706 292.694 191.901 292.582 189.993 291.573L21.4351 194.419C20.874 194.083 20.4251 193.747 20.2006 193.299C19.5273 194.195 19.9762 195.428 21.4351 196.212L189.993 293.366C191.788 294.375 194.594 294.599 196.277 293.59L296.828 235.657C297.951 234.984 298.175 234.088 297.614 233.191C297.39 233.415 297.165 233.64 296.828 233.864Z" fill="#F9CBB4"/>
<path d="M240.829 272.3V270.507C240.829 270.283 240.717 270.283 240.604 270.283L234.096 274.093C233.983 274.205 233.871 274.317 233.871 274.541V276.334C233.871 276.558 233.983 276.558 234.096 276.558L240.604 272.748C240.717 272.748 240.829 272.524 240.829 272.3Z" fill="#FFD0B5"/>
<path d="M231.065 277.902V276.109C231.065 275.885 230.953 275.885 230.841 275.885L224.332 279.695C224.22 279.807 224.107 279.919 224.107 280.143V281.936C224.107 282.16 224.22 282.16 224.332 282.16L230.841 278.35C230.953 278.35 231.065 278.126 231.065 277.902Z" fill="#FFD0B5"/>
<path opacity="0.4" d="M129.279 162.034L237.574 224.562L242.399 221.761L134.105 159.232L129.279 162.034Z" fill="#FFD0B5"/>
<path opacity="0.4" d="M117.385 168.87L219.058 227.476L223.884 224.675L122.21 166.068L117.385 168.87Z" fill="#FFD0B5"/>
<path opacity="0.4" d="M109.754 173.24L229.383 242.268L234.208 239.466L114.579 170.551L109.754 173.24Z" fill="#FFD0B5"/>
<path opacity="0.4" d="M102.01 177.721L221.751 246.749L226.576 243.947L106.835 174.92L102.01 177.721Z" fill="#FFD0B5"/>
<path opacity="0.4" d="M94.3789 182.204L214.008 251.119L218.833 248.43L99.2045 179.402L94.3789 182.204Z" fill="#FFD0B5"/>
<path opacity="0.4" d="M244.195 228.26L249.021 231.061L253.846 228.26L249.021 225.57L244.195 228.26Z" fill="#FFD0B5"/>
<path opacity="0.4" d="M227.139 232.07L237.126 237.897L241.952 235.096L231.964 229.381L227.139 232.07Z" fill="#FFD0B5"/>
<g opacity="0.05">
<g opacity="0.05">
<path opacity="0.05" d="M127.71 134.693L296.268 231.847C298.063 232.855 300.869 233.079 302.552 232.071L403.103 174.137C404.674 173.241 404.45 171.56 402.654 170.551L233.984 73.3972C232.189 72.3887 229.383 72.1646 227.7 73.1731L127.261 131.107C125.578 132.003 125.802 133.572 127.71 134.693Z" fill="url(#paint7_linear)"/>
<path opacity="0.05" d="M296.717 152.061L259.01 130.322C257.551 129.426 257.551 128.081 259.01 127.297L284.821 112.393C286.28 111.497 288.637 111.497 290.208 112.393L327.915 134.132C329.374 135.029 329.374 136.373 327.915 137.158L302.104 152.061C300.532 152.958 298.176 152.958 296.717 152.061Z" fill="url(#paint8_linear)"/>
<path opacity="0.05" d="M327.802 135.365L290.095 113.626C288.636 112.729 286.279 112.729 284.708 113.626L258.897 128.529C258.448 128.753 258.112 129.09 257.999 129.426C257.663 128.641 257.887 127.857 258.897 127.297L284.708 112.393C286.167 111.497 288.524 111.497 290.095 112.393L327.802 134.132C328.812 134.693 329.148 135.589 328.699 136.261C328.587 135.925 328.251 135.701 327.802 135.365Z" fill="#9198DB"/>
<g opacity="0.05">
<path opacity="0.05" d="M344.411 186.126L204.358 105.332C203.46 104.772 202.226 104.772 201.328 105.332L151.501 134.243C150.828 134.691 150.828 135.7 151.501 136.148L291.442 216.83C292.34 217.39 293.574 217.39 294.472 216.83L344.411 188.031C345.197 187.583 345.197 186.574 344.411 186.126Z" fill="#ADB1F2"/>
<path opacity="0.05" d="M344.411 188.032L343.962 188.368L204.358 107.798C203.46 107.238 202.226 107.238 201.328 107.798L151.95 136.261L151.501 135.925C150.828 135.477 150.828 134.468 151.501 134.02L201.328 105.221C202.226 104.661 203.46 104.661 204.358 105.221L344.411 185.903C345.197 186.575 345.197 187.583 344.411 188.032Z" fill="#9198DB"/>
<g opacity="0.05">
<path opacity="0.05" d="M164.519 132.227L286.617 202.599L281.679 205.4L159.693 135.028L164.519 132.227Z" fill="#24126A"/>
<path opacity="0.05" d="M177.425 124.83L293.351 191.616L288.525 194.418L172.6 127.632L177.425 124.83Z" fill="#24126A"/>
<path opacity="0.05" d="M301.992 196.66L312.877 202.935L308.052 205.737L297.166 199.462L301.992 196.66Z" fill="#24126A"/>
<path opacity="0.05" d="M292.453 205.961L299.971 210.331L295.146 213.133L287.627 208.762L292.453 205.961Z" fill="#24126A"/>
<path opacity="0.05" d="M185.505 120.125L320.957 198.229L316.132 201.031L180.68 122.926L185.505 120.125Z" fill="#24126A"/>
<path opacity="0.05" d="M193.584 115.529L328.924 193.634L324.099 196.435L188.646 118.331L193.584 115.529Z" fill="#24126A"/>
<path opacity="0.05" d="M201.552 110.936L337.004 188.928L332.179 191.729L196.727 113.625L201.552 110.936Z" fill="#24126A"/>
</g>
</g>
</g>
</g>
<path d="M223.098 65.1046L205.591 63.3117L180.453 61.6309C180.453 61.6309 173.608 119.453 223.21 180.748C272.812 176.602 265.966 110.824 265.966 110.824L223.098 65.1046Z" fill="black" fill-opacity="0.05"/>
<path d="M263.183 112.285L215.131 60.904L167.206 57C167.206 57 159.512 121.982 215.257 190.869C270.876 186.209 263.183 112.285 263.183 112.285Z" fill="url(#paint9_linear)"/>
<path d="M167.206 57L156.359 63.2967L204.411 67.0748L215.131 60.904L167.206 57Z" fill="url(#paint10_linear)"/>
<path d="M252.337 118.581L204.285 67.0739L184.611 65.0589L156.36 63.1699C156.36 63.1699 148.667 128.152 204.412 197.039C260.03 192.379 252.337 118.581 252.337 118.581Z" fill="#F99170"/>
<path opacity="0.3" d="M246.536 119.337L203.403 73.119L185.62 71.3559L160.27 69.7188C160.27 69.7188 153.333 128.152 203.403 190.112C253.472 185.831 246.536 119.337 246.536 119.337Z" fill="url(#paint11_linear)"/>
<path d="M252.338 118.583L204.286 67.0756L156.234 63.1716C157.622 62.416 157.622 62.416 157.622 62.416L206.304 66.32L254.355 117.827C254.355 117.827 260.788 179.535 219.294 193.766C258.517 178.276 252.338 118.583 252.338 118.583Z" fill="#FCC29F"/>
<g clip-path="url(#clip1)">
<path d="M179.743 96.9785L180.854 101.363C180.962 101.726 181.212 102.088 181.463 102.269L184.905 104.335C185.55 104.733 185.801 105.82 185.299 105.965L182.575 106.762C182.36 106.835 182.252 107.125 182.324 107.487L183.327 111.836C183.507 112.669 182.826 112.85 182.288 112.089L179.492 108.212C179.277 107.886 178.954 107.705 178.703 107.777L175.907 108.393C175.37 108.502 174.689 107.523 174.868 106.907L175.871 103.719C175.943 103.465 175.871 103.066 175.62 102.74L172.896 98.7541C172.394 98.0293 172.681 97.2321 173.326 97.5945L176.732 99.515C177.018 99.66 177.269 99.6238 177.341 99.3701L178.452 96.2537C178.667 95.6739 179.528 96.1813 179.743 96.9785Z" fill="#AFB6E5"/>
<path d="M193.902 105.24L195.013 109.624C195.121 109.987 195.371 110.349 195.622 110.53L199.028 112.596C199.673 112.994 199.924 114.082 199.422 114.226L196.734 115.06C196.519 115.132 196.411 115.422 196.483 115.785L197.486 120.133C197.666 120.967 196.985 121.148 196.447 120.387L193.651 116.509C193.436 116.183 193.113 116.002 192.862 116.075L190.066 116.654C189.564 116.799 188.847 115.785 189.027 115.205L190.03 112.016C190.102 111.762 190.03 111.364 189.779 111.038L187.055 107.052C186.553 106.291 186.804 105.53 187.449 105.856L190.855 107.776C191.142 107.921 191.393 107.885 191.464 107.631L192.575 104.551C192.826 103.935 193.687 104.443 193.902 105.24Z" fill="#AFB6E5"/>
<path d="M208.061 113.502L209.172 117.887C209.279 118.249 209.53 118.611 209.781 118.792L213.187 120.858C213.832 121.257 214.083 122.344 213.581 122.489L210.857 123.286C210.642 123.358 210.534 123.648 210.606 124.011L211.609 128.359C211.789 129.192 211.108 129.374 210.57 128.613L207.774 124.735C207.559 124.409 207.236 124.228 206.985 124.301L204.189 124.917C203.652 125.025 202.971 124.047 203.15 123.431L204.153 120.242C204.225 119.988 204.153 119.59 203.903 119.264L201.178 115.278C200.676 114.517 200.927 113.756 201.573 114.082L204.978 116.002C205.265 116.147 205.516 116.111 205.587 115.857L206.698 112.777C206.985 112.197 207.846 112.705 208.061 113.502Z" fill="#AFB6E5"/>
<path d="M179.743 96.9785L180.854 101.363C180.962 101.726 181.212 102.088 181.463 102.269L184.905 104.335C185.55 104.733 185.801 105.82 185.299 105.965L182.575 106.762C182.36 106.835 182.252 107.125 182.324 107.487L183.327 111.836C183.507 112.669 182.826 112.85 182.288 112.089L179.492 108.212C179.277 107.886 178.954 107.705 178.703 107.777L175.907 108.393C175.37 108.502 174.689 107.523 174.868 106.907L175.871 103.719C175.943 103.465 175.871 103.066 175.62 102.74L172.896 98.7541C172.394 98.0293 172.681 97.2321 173.326 97.5945L176.732 99.515C177.018 99.66 177.269 99.6238 177.341 99.3701L178.452 96.2537C178.667 95.6739 179.528 96.1813 179.743 96.9785Z" fill="#AFB6E5"/>
<path d="M193.902 105.24L195.013 109.624C195.121 109.987 195.371 110.349 195.622 110.53L199.028 112.596C199.673 112.994 199.924 114.082 199.422 114.226L196.734 115.06C196.519 115.132 196.411 115.422 196.483 115.785L197.486 120.133C197.666 120.967 196.985 121.148 196.447 120.387L193.651 116.509C193.436 116.183 193.113 116.002 192.862 116.075L190.066 116.654C189.564 116.799 188.847 115.785 189.027 115.205L190.03 112.016C190.102 111.762 190.03 111.364 189.779 111.038L187.055 107.052C186.553 106.291 186.804 105.53 187.449 105.856L190.855 107.776C191.142 107.921 191.393 107.885 191.464 107.631L192.575 104.551C192.826 103.935 193.687 104.443 193.902 105.24Z" fill="#AFB6E5"/>
<path d="M208.061 113.502L209.172 117.887C209.279 118.249 209.53 118.611 209.781 118.792L213.187 120.858C213.832 121.257 214.083 122.344 213.581 122.489L210.857 123.286C210.642 123.358 210.534 123.648 210.606 124.011L211.609 128.359C211.789 129.192 211.108 129.374 210.57 128.613L207.774 124.735C207.559 124.409 207.236 124.228 206.985 124.301L204.189 124.917C203.652 125.025 202.971 124.047 203.15 123.431L204.153 120.242C204.225 119.988 204.153 119.59 203.903 119.264L201.178 115.278C200.676 114.517 200.927 113.756 201.573 114.082L204.978 116.002C205.265 116.147 205.516 116.111 205.587 115.857L206.698 112.777C206.985 112.197 207.846 112.705 208.061 113.502Z" fill="#AFB6E5"/>
<path d="M210.426 124.011C210.39 123.866 210.462 123.54 210.498 123.432L210.175 123.54C209.96 123.613 209.853 123.903 209.924 124.265L210.892 128.614C210.964 128.903 210.892 129.121 210.785 129.266L211.143 129.085C211.358 129.012 211.466 128.758 211.358 128.396L210.426 124.011Z" fill="url(#paint12_linear)"/>
<path d="M200.963 114.372L204.369 116.257C204.656 116.402 204.906 116.365 204.978 116.112L204.691 115.93L201.465 114.119C201.25 114.01 201.071 114.01 200.963 114.119L200.533 114.3C200.641 114.264 200.784 114.264 200.963 114.372Z" fill="url(#paint13_linear)"/>
<path d="M212.971 120.858L209.565 118.793C209.279 118.612 209.028 118.285 208.956 117.923L207.845 113.575C207.666 112.85 206.985 112.379 206.698 112.669L206.268 112.85C206.59 112.669 207.2 113.14 207.379 113.792L208.49 118.141C208.598 118.503 208.813 118.865 209.099 119.01L212.505 121.076C213.078 121.438 213.365 122.38 213.007 122.67L213.437 122.453C213.867 122.272 213.616 121.257 212.971 120.858Z" fill="url(#paint14_linear)"/>
<path d="M207.38 113.793L208.491 118.141C208.598 118.504 208.813 118.866 209.1 119.011L212.506 121.077C213.151 121.475 213.402 122.562 212.9 122.707L210.211 123.504C209.996 123.577 209.889 123.867 209.96 124.229L210.928 128.578C211.108 129.411 210.426 129.556 209.889 128.831L207.129 124.99C206.914 124.664 206.591 124.483 206.376 124.555L203.58 125.171C203.042 125.28 202.361 124.302 202.54 123.722L203.508 120.533C203.58 120.279 203.508 119.881 203.257 119.555L200.569 115.569C200.067 114.808 200.318 114.047 200.963 114.409L204.369 116.293C204.655 116.438 204.906 116.402 204.978 116.148L206.089 113.068C206.304 112.488 207.164 112.996 207.38 113.793Z" fill="url(#paint15_linear)"/>
<g style="mix-blend-mode:screen">
<path d="M206.09 113.068C206.305 112.488 207.165 112.996 207.344 113.793L208.456 118.141C208.563 118.504 208.778 118.866 209.065 119.011L212.47 121.077C213.116 121.475 213.367 122.562 212.865 122.707L210.176 123.504C209.961 123.577 209.854 123.867 209.925 124.229L210.893 128.578C211.072 129.411 210.391 129.556 209.854 128.831L207.129 124.99L206.09 113.068Z" fill="url(#paint16_radial)"/>
</g>
<path d="M200.891 114.481L204.296 116.365C204.512 116.474 204.727 116.474 204.834 116.329C204.727 116.402 204.547 116.365 204.404 116.293L200.999 114.409C200.748 114.264 200.568 114.3 200.461 114.445C200.568 114.372 200.712 114.372 200.891 114.481Z" fill="white"/>
<path d="M209.959 124.229C209.888 123.976 209.923 123.758 210.031 123.613C209.852 123.722 209.78 123.976 209.852 124.302L210.82 128.65C210.891 128.94 210.855 129.121 210.748 129.266C210.927 129.194 210.999 128.94 210.927 128.578L209.959 124.229Z" fill="white"/>
<path d="M212.504 121.112L209.099 119.047C208.812 118.865 208.561 118.539 208.489 118.177L207.378 113.828C207.199 113.104 206.482 112.633 206.195 112.959C206.518 112.814 207.127 113.249 207.271 113.901L208.382 118.249C208.489 118.612 208.705 118.974 208.991 119.119L212.397 121.185C212.934 121.511 213.221 122.38 212.934 122.707C213.365 122.489 213.114 121.474 212.504 121.112Z" fill="white"/>
<path d="M221.324 122.96L222.436 127.345C222.543 127.707 222.794 128.07 223.045 128.251L226.45 130.317C227.096 130.715 227.346 131.802 226.845 131.947L224.12 132.744C223.905 132.817 223.798 133.107 223.869 133.469L224.873 137.818C225.052 138.651 224.371 138.832 223.834 138.071L221.038 134.194C220.822 133.868 220.5 133.687 220.249 133.759L217.453 134.375C216.915 134.484 216.234 133.505 216.413 132.889L217.417 129.701C217.489 129.447 217.417 129.048 217.166 128.722L214.442 124.736C213.94 123.975 214.191 123.214 214.836 123.54L218.242 125.461C218.528 125.606 218.779 125.569 218.851 125.316L219.962 122.236C220.249 121.62 221.109 122.127 221.324 122.96Z" fill="#AFB6E5"/>
<path d="M221.324 122.96L222.436 127.345C222.543 127.707 222.794 128.07 223.045 128.251L226.45 130.317C227.096 130.715 227.346 131.802 226.845 131.947L224.12 132.744C223.905 132.817 223.798 133.107 223.869 133.469L224.873 137.818C225.052 138.651 224.371 138.832 223.834 138.071L221.038 134.194C220.822 133.868 220.5 133.687 220.249 133.759L217.453 134.375C216.915 134.484 216.234 133.505 216.413 132.889L217.417 129.701C217.489 129.447 217.417 129.048 217.166 128.722L214.442 124.736C213.94 123.975 214.191 123.214 214.836 123.54L218.242 125.461C218.528 125.606 218.779 125.569 218.851 125.316L219.962 122.236C220.249 121.62 221.109 122.127 221.324 122.96Z" fill="#AFB6E5"/>
<path d="M223.688 133.433C223.652 133.288 223.724 132.962 223.76 132.854L223.437 132.962C223.222 133.035 223.114 133.325 223.186 133.687L224.154 138.035C224.226 138.325 224.154 138.543 224.046 138.688L224.405 138.506C224.62 138.434 224.728 138.18 224.62 137.818L223.688 133.433Z" fill="url(#paint17_linear)"/>
<path d="M214.225 123.794L217.63 125.678C217.917 125.823 218.168 125.787 218.24 125.534L217.953 125.352L214.727 123.541C214.512 123.432 214.333 123.432 214.225 123.541L213.795 123.722C213.902 123.685 214.046 123.685 214.225 123.794Z" fill="url(#paint18_linear)"/>
<path d="M226.233 130.28L222.827 128.215C222.54 128.033 222.289 127.707 222.218 127.345L221.107 122.997C220.927 122.272 220.246 121.801 219.959 122.091L219.529 122.272C219.852 122.091 220.461 122.562 220.641 123.214L221.752 127.562C221.859 127.925 222.074 128.287 222.361 128.432L225.767 130.498C226.34 130.86 226.627 131.802 226.268 132.092L226.699 131.875C227.129 131.693 226.878 130.679 226.233 130.28Z" fill="url(#paint19_linear)"/>
<path d="M220.643 123.215L221.754 127.563C221.861 127.926 222.076 128.288 222.363 128.433L225.769 130.498C226.414 130.897 226.665 131.984 226.163 132.129L223.474 132.926C223.259 132.999 223.152 133.289 223.223 133.651L224.191 137.999C224.371 138.833 223.689 138.978 223.152 138.253L220.392 134.412C220.177 134.086 219.854 133.905 219.639 133.977L216.843 134.593C216.305 134.702 215.624 133.724 215.803 133.144L216.771 129.955C216.843 129.701 216.771 129.303 216.52 128.976L213.868 124.99C213.366 124.229 213.617 123.468 214.262 123.831L217.667 125.715C217.954 125.86 218.205 125.824 218.277 125.57L219.388 122.49C219.567 121.91 220.427 122.418 220.643 123.215Z" fill="url(#paint20_linear)"/>
<g style="mix-blend-mode:screen">
<path d="M219.352 122.49C219.567 121.91 220.427 122.418 220.606 123.215L221.717 127.563C221.825 127.926 222.04 128.288 222.327 128.433L225.732 130.498C226.377 130.897 226.628 131.984 226.126 132.129L223.438 132.926C223.223 132.999 223.115 133.289 223.187 133.651L224.155 137.999C224.334 138.833 223.653 138.978 223.115 138.253L220.391 134.412L219.352 122.49Z" fill="url(#paint21_radial)"/>
</g>
<path d="M214.155 123.903L217.56 125.787C217.775 125.896 217.99 125.896 218.098 125.751C217.99 125.824 217.811 125.787 217.668 125.715L214.262 123.831C214.011 123.686 213.832 123.722 213.725 123.867C213.832 123.794 213.976 123.794 214.155 123.903Z" fill="white"/>
<path d="M223.223 133.686C223.151 133.433 223.187 133.215 223.295 133.07C223.115 133.179 223.044 133.433 223.115 133.759L224.083 138.107C224.155 138.397 224.119 138.578 224.012 138.723C224.191 138.651 224.262 138.397 224.191 138.035L223.223 133.686Z" fill="white"/>
<path d="M225.768 130.534L222.363 128.468C222.076 128.287 221.825 127.961 221.753 127.599L220.642 123.25C220.463 122.526 219.746 122.055 219.459 122.381C219.782 122.236 220.391 122.671 220.534 123.323L221.646 127.671C221.753 128.034 221.968 128.396 222.255 128.541L225.66 130.606C226.198 130.933 226.485 131.802 226.198 132.128C226.664 131.911 226.377 130.896 225.768 130.534Z" fill="white"/>
<path d="M234.156 132.238L235.268 136.622C235.375 136.985 235.626 137.347 235.877 137.528L239.282 139.594C239.928 139.992 240.178 141.08 239.677 141.225L236.952 142.022C236.737 142.094 236.63 142.384 236.701 142.747L237.705 147.095C237.884 147.928 237.203 148.11 236.666 147.349L233.87 143.471C233.655 143.145 233.332 142.964 233.081 143.036L230.285 143.652C229.747 143.761 229.066 142.783 229.245 142.167L230.249 138.978C230.321 138.724 230.249 138.326 229.998 137.999L227.274 134.013C226.772 133.252 227.023 132.491 227.668 132.818L231.074 134.738C231.36 134.883 231.611 134.847 231.683 134.593L232.794 131.513C233.117 130.897 233.977 131.404 234.156 132.238Z" fill="#AFB6E5"/>
<path d="M234.156 132.238L235.268 136.622C235.375 136.985 235.626 137.347 235.877 137.528L239.282 139.594C239.928 139.992 240.178 141.08 239.677 141.225L236.952 142.022C236.737 142.094 236.63 142.384 236.701 142.747L237.705 147.095C237.884 147.928 237.203 148.11 236.666 147.349L233.87 143.471C233.655 143.145 233.332 142.964 233.081 143.036L230.285 143.652C229.747 143.761 229.066 142.783 229.245 142.167L230.249 138.978C230.321 138.724 230.249 138.326 229.998 137.999L227.274 134.013C226.772 133.252 227.023 132.491 227.668 132.818L231.074 134.738C231.36 134.883 231.611 134.847 231.683 134.593L232.794 131.513C233.117 130.897 233.977 131.404 234.156 132.238Z" fill="#AFB6E5"/>
<path d="M236.557 142.711C236.521 142.566 236.593 142.24 236.629 142.131L236.306 142.24C236.091 142.312 235.984 142.602 236.055 142.964L237.023 147.313C237.095 147.603 237.023 147.82 236.916 147.965L237.274 147.784C237.489 147.711 237.597 147.458 237.489 147.095L236.557 142.711Z" fill="url(#paint22_linear)"/>
<path d="M227.094 133.107L230.5 134.991C230.786 135.136 231.037 135.1 231.109 134.846L230.822 134.665L227.596 132.853C227.381 132.744 227.202 132.744 227.094 132.853L226.664 133.034C226.736 132.998 226.915 132.998 227.094 133.107Z" fill="url(#paint23_linear)"/>
<path d="M239.102 139.558L235.696 137.492C235.41 137.311 235.159 136.985 235.087 136.622L233.976 132.274C233.796 131.549 233.115 131.078 232.829 131.368L232.398 131.549C232.721 131.368 233.33 131.839 233.51 132.491L234.621 136.84C234.728 137.202 234.944 137.564 235.23 137.709L238.636 139.775C239.209 140.137 239.496 141.079 239.138 141.369L239.568 141.152C239.998 140.971 239.711 139.956 239.102 139.558Z" fill="url(#paint24_linear)"/>
<path d="M233.511 132.492L234.622 136.841C234.73 137.203 234.945 137.565 235.232 137.71L238.637 139.776C239.282 140.174 239.533 141.261 239.031 141.406L236.343 142.204C236.128 142.276 236.02 142.566 236.092 142.928L237.06 147.277C237.239 148.11 236.558 148.255 236.02 147.53L233.224 143.653C233.009 143.327 232.687 143.146 232.472 143.218L229.676 143.834C229.138 143.943 228.457 142.965 228.636 142.385L229.604 139.196C229.676 138.942 229.604 138.544 229.353 138.218L226.665 134.268C226.163 133.507 226.414 132.746 227.059 133.108L230.464 134.992C230.751 135.137 231.002 135.101 231.074 134.848L232.185 131.767C232.436 131.188 233.296 131.695 233.511 132.492Z" fill="url(#paint25_linear)"/>
<g style="mix-blend-mode:screen">
<path d="M232.221 131.767C232.436 131.188 233.296 131.695 233.475 132.492L234.587 136.841C234.694 137.203 234.909 137.565 235.196 137.71L238.601 139.776C239.247 140.174 239.497 141.261 238.996 141.406L236.307 142.204C236.092 142.276 235.985 142.566 236.056 142.928L237.024 147.277C237.203 148.11 236.522 148.255 235.985 147.53L233.189 143.653L232.221 131.767Z" fill="url(#paint26_radial)"/>
</g>
<path d="M227.022 133.18L230.427 135.065C230.642 135.173 230.857 135.173 230.965 135.028C230.857 135.101 230.678 135.065 230.535 134.992L227.129 133.108C226.879 132.963 226.699 132.999 226.592 133.144C226.663 133.072 226.843 133.072 227.022 133.18Z" fill="white"/>
<path d="M236.09 142.964C236.018 142.71 236.054 142.493 236.162 142.348C235.983 142.456 235.911 142.71 235.983 143.036L236.95 147.385C237.022 147.674 236.986 147.856 236.879 148.001C237.058 147.928 237.13 147.674 237.058 147.312L236.09 142.964Z" fill="white"/>
<path d="M238.635 139.811L235.23 137.746C234.943 137.565 234.692 137.239 234.62 136.876L233.509 132.528C233.33 131.803 232.613 131.332 232.326 131.658C232.649 131.513 233.258 131.948 233.402 132.6L234.513 136.949C234.62 137.311 234.835 137.673 235.122 137.818L238.528 139.884C239.065 140.21 239.352 141.08 239.065 141.406C239.495 141.188 239.244 140.174 238.635 139.811Z" fill="white"/>
<path d="M196.34 115.785C196.305 115.64 196.376 115.314 196.412 115.205L196.089 115.314C195.874 115.386 195.767 115.676 195.839 116.039L196.806 120.387C196.878 120.677 196.806 120.894 196.699 121.039L197.057 120.858C197.272 120.786 197.38 120.532 197.272 120.17L196.34 115.785Z" fill="url(#paint27_linear)"/>
<path d="M186.877 106.183L190.283 108.067C190.57 108.212 190.82 108.176 190.892 107.922L190.605 107.741L187.379 105.929C187.164 105.82 186.985 105.82 186.877 105.929L186.447 106.11C186.519 106.074 186.698 106.074 186.877 106.183Z" fill="url(#paint28_linear)"/>
<path d="M198.885 112.669L195.479 110.603C195.193 110.422 194.942 110.096 194.87 109.734L193.759 105.385C193.58 104.66 192.899 104.189 192.612 104.479L192.182 104.66C192.504 104.479 193.114 104.95 193.293 105.603L194.404 109.951C194.512 110.313 194.727 110.676 195.013 110.821L198.419 112.886C198.992 113.249 199.279 114.191 198.921 114.481L199.351 114.263C199.781 114.046 199.494 113.031 198.885 112.669Z" fill="url(#paint29_linear)"/>
<path d="M193.257 105.603L194.368 109.951C194.476 110.314 194.691 110.676 194.978 110.821L198.383 112.887C199.028 113.285 199.279 114.372 198.778 114.517L196.089 115.315C195.874 115.387 195.766 115.677 195.838 116.039L196.806 120.388C196.985 121.221 196.304 121.366 195.766 120.641L192.97 116.764C192.755 116.438 192.433 116.257 192.218 116.329L189.422 116.945C188.884 117.054 188.203 116.075 188.382 115.496L189.35 112.307C189.422 112.053 189.35 111.655 189.099 111.328L186.411 107.379C185.909 106.618 186.16 105.857 186.805 106.219L190.21 108.103C190.497 108.248 190.748 108.212 190.82 107.958L191.931 104.878C192.218 104.262 193.078 104.77 193.257 105.603Z" fill="url(#paint30_linear)"/>
<g style="mix-blend-mode:screen">
<path d="M192.002 104.842C192.217 104.262 193.077 104.769 193.257 105.566L194.368 109.915C194.475 110.277 194.69 110.64 194.977 110.784L198.383 112.85C199.028 113.249 199.279 114.336 198.777 114.481L196.088 115.278C195.873 115.35 195.766 115.64 195.837 116.003L196.805 120.351C196.985 121.184 196.303 121.329 195.766 120.605L192.97 116.727L192.002 104.842Z" fill="url(#paint31_radial)"/>
</g>
<path d="M186.805 106.255L190.211 108.139C190.426 108.248 190.641 108.248 190.748 108.103C190.641 108.175 190.461 108.139 190.318 108.066L186.913 106.182C186.662 106.037 186.483 106.073 186.375 106.218C186.447 106.146 186.59 106.146 186.805 106.255Z" fill="white"/>
<path d="M195.873 116.038C195.802 115.784 195.837 115.567 195.945 115.422C195.766 115.531 195.694 115.784 195.766 116.11L196.734 120.459C196.805 120.749 196.769 120.93 196.662 121.075C196.841 121.002 196.913 120.749 196.841 120.386L195.873 116.038Z" fill="white"/>
<path d="M198.418 112.886L195.013 110.82C194.726 110.639 194.475 110.313 194.404 109.95L193.292 105.602C193.113 104.877 192.396 104.406 192.109 104.732C192.432 104.587 193.041 105.022 193.185 105.674L194.296 110.023C194.404 110.385 194.619 110.748 194.905 110.893L198.311 112.958C198.848 113.284 199.135 114.154 198.848 114.48C199.279 114.263 199.028 113.248 198.418 112.886Z" fill="white"/>
<path d="M182.106 107.558C182.07 107.413 182.142 107.087 182.178 106.979L181.855 107.087C181.64 107.16 181.532 107.45 181.604 107.812L182.572 112.16C182.644 112.45 182.572 112.668 182.464 112.813L182.823 112.631C183.038 112.559 183.146 112.305 183.038 111.943L182.106 107.558Z" fill="url(#paint32_linear)"/>
<path d="M172.644 97.9192L176.049 99.8035C176.336 99.9484 176.587 99.9122 176.658 99.6585L176.372 99.4774L173.146 97.6655C172.931 97.5568 172.751 97.5568 172.644 97.6655L172.178 97.8829C172.321 97.8105 172.465 97.8105 172.644 97.9192Z" fill="url(#paint33_linear)"/>
<path d="M184.652 104.406L181.247 102.341C180.96 102.16 180.709 101.833 180.638 101.471L179.526 97.0864C179.347 96.3617 178.666 95.8906 178.379 96.1805L177.949 96.3617C178.272 96.1805 178.881 96.6515 179.06 97.3038L180.172 101.652C180.279 102.015 180.494 102.377 180.781 102.522L184.186 104.587C184.76 104.95 185.047 105.892 184.688 106.182L185.118 105.964C185.549 105.819 185.298 104.769 184.652 104.406Z" fill="url(#paint34_linear)"/>
<path d="M179.061 97.3409L180.172 101.689C180.28 102.052 180.495 102.414 180.782 102.559L184.187 104.625C184.832 105.023 185.083 106.11 184.582 106.255L181.893 107.052C181.678 107.125 181.57 107.415 181.642 107.777L182.61 112.126C182.789 112.959 182.108 113.104 181.57 112.379L178.81 108.538C178.595 108.212 178.273 108.031 178.058 108.103L175.262 108.683C174.724 108.792 174.043 107.813 174.222 107.234L175.19 104.045C175.262 103.791 175.19 103.392 174.939 103.066L172.25 99.1165C171.749 98.3555 172 97.5946 172.645 97.9569L176.05 99.8412C176.337 99.9862 176.588 99.95 176.66 99.6963L177.771 96.6162C177.986 96.0364 178.846 96.5074 179.061 97.3409Z" fill="url(#paint35_linear)"/>
<g style="mix-blend-mode:screen">
<path d="M177.771 96.6151C177.987 96.0353 178.847 96.5426 179.026 97.3398L180.137 101.688C180.245 102.051 180.46 102.413 180.747 102.558L184.152 104.623C184.797 105.022 185.048 106.109 184.546 106.254L181.858 107.051C181.643 107.124 181.535 107.414 181.607 107.776L182.575 112.124C182.754 112.958 182.073 113.103 181.535 112.378L178.811 108.537L177.771 96.6151Z" fill="url(#paint36_radial)"/>
</g>
<path d="M172.573 97.9909L175.979 99.8752C176.194 99.984 176.409 99.984 176.516 99.839C176.409 99.9115 176.23 99.8752 176.086 99.8028L172.681 97.9184C172.43 97.7735 172.251 97.8097 172.107 97.9547C172.251 97.8822 172.394 97.9184 172.573 97.9909Z" fill="white"/>
<path d="M181.643 107.776C181.571 107.523 181.607 107.305 181.715 107.16C181.535 107.269 181.464 107.523 181.535 107.849L182.503 112.197C182.575 112.487 182.539 112.668 182.431 112.813C182.611 112.741 182.682 112.487 182.611 112.125L181.643 107.776Z" fill="white"/>
<path d="M184.188 104.659L180.782 102.593C180.496 102.412 180.245 102.086 180.173 101.724L179.062 97.3754C178.883 96.6506 178.166 96.1795 177.879 96.5057C178.202 96.3607 178.811 96.7956 178.954 97.4478L180.066 101.796C180.173 102.159 180.388 102.521 180.675 102.666L184.08 104.731C184.618 105.058 184.905 105.927 184.618 106.253C185.048 106.036 184.797 105.021 184.188 104.659Z" fill="white"/>
</g>
</g>
<defs>
<linearGradient id="paint0_linear" x1="97.6858" y1="285.445" x2="60.6878" y2="278.676" gradientUnits="userSpaceOnUse">
<stop stop-color="#FAC199"/>
<stop offset="1" stop-color="#FDDDA4" stop-opacity="0.5"/>
</linearGradient>
<linearGradient id="paint1_linear" x1="186.401" y1="5.77793" x2="284.188" y2="261.944" gradientUnits="userSpaceOnUse">
<stop stop-color="#FFE4A7"/>
<stop offset="0.0105" stop-color="#FFE2A6"/>
<stop offset="0.2656" stop-color="#FAC199"/>
<stop offset="0.5086" stop-color="#F7A98F"/>
<stop offset="0.7325" stop-color="#F59A89"/>
<stop offset="0.9192" stop-color="#F49587"/>
</linearGradient>
<linearGradient id="paint2_linear" x1="300.529" y1="103.962" x2="381.546" y2="168.043" gradientUnits="userSpaceOnUse">
<stop stop-color="#FFE4A7"/>
<stop offset="0.0105" stop-color="#FFE2A6"/>
<stop offset="0.2656" stop-color="#FAC199"/>
<stop offset="0.5086" stop-color="#F7A98F"/>
<stop offset="0.7325" stop-color="#F59A89"/>
<stop offset="0.9192" stop-color="#F49587"/>
</linearGradient>
<linearGradient id="paint3_linear" x1="164.657" y1="-15.5901" x2="318.2" y2="292.524" gradientUnits="userSpaceOnUse">
<stop offset="0.0556" stop-color="#F7AA90"/>
<stop offset="0.1111" stop-color="#F9B996"/>
<stop offset="0.2184" stop-color="#FCD09F"/>
<stop offset="0.32" stop-color="#FDDDA4"/>
<stop offset="0.5201" stop-color="#FAC199"/>
<stop offset="0.744153" stop-color="#FEE2A6"/>
<stop offset="0.8081" stop-color="#F49587"/>
</linearGradient>
<linearGradient id="paint4_linear" x1="186.194" y1="15.2061" x2="275.106" y2="252.157" gradientUnits="userSpaceOnUse">
<stop stop-color="#FFE4A7"/>
<stop offset="0.0105" stop-color="#FFE2A6"/>
<stop offset="0.2656" stop-color="#FAC199"/>
<stop offset="0.5086" stop-color="#F7A98F"/>
<stop offset="0.7325" stop-color="#F59A89"/>
<stop offset="0.9192" stop-color="#F49587"/>
</linearGradient>
<linearGradient id="paint5_linear" x1="76.3368" y1="133.627" x2="138.783" y2="367.781" gradientUnits="userSpaceOnUse">
<stop offset="0.0556" stop-color="#F7AA90"/>
<stop offset="0.1111" stop-color="#F9B996"/>
<stop offset="0.2184" stop-color="#FCD09F"/>
<stop offset="0.32" stop-color="#FDDDA4"/>
<stop offset="0.4091" stop-color="#FEE2A6"/>
<stop offset="0.5201" stop-color="#FAC199"/>
<stop offset="0.6272" stop-color="#F7A98F"/>
<stop offset="0.7259" stop-color="#F59A89"/>
<stop offset="0.8081" stop-color="#F49587"/>
</linearGradient>
<linearGradient id="paint6_linear" x1="273.209" y1="289.791" x2="-66.3066" y2="-222.46" gradientUnits="userSpaceOnUse">
<stop stop-color="#FCBA9D"/>
<stop offset="0.5634" stop-color="#EE8594"/>
<stop offset="1" stop-color="#E4608D"/>
</linearGradient>
<linearGradient id="paint7_linear" x1="310.654" y1="152.603" x2="32.7551" y2="152.603" gradientUnits="userSpaceOnUse">
<stop stop-color="#C0BFF6"/>
<stop offset="0.2938" stop-color="#C5C4F7"/>
<stop offset="0.6399" stop-color="#D3D2F9"/>
<stop offset="1" stop-color="#E9E9FD"/>
</linearGradient>
<linearGradient id="paint8_linear" x1="328.945" y1="132.233" x2="257.811" y2="132.233" gradientUnits="userSpaceOnUse">
<stop stop-color="#C0BFF6"/>
<stop offset="0.2938" stop-color="#C5C4F7"/>
<stop offset="0.6399" stop-color="#D3D2F9"/>
<stop offset="1" stop-color="#E9E9FD"/>
</linearGradient>
<linearGradient id="paint9_linear" x1="186.429" y1="47.1071" x2="284.951" y2="197.278" gradientUnits="userSpaceOnUse">
<stop offset="0.0556" stop-color="#F7AA90"/>
<stop offset="0.1111" stop-color="#F9B996"/>
<stop offset="0.2184" stop-color="#FCD09F"/>
<stop offset="0.32" stop-color="#FDDDA4"/>
<stop offset="0.4091" stop-color="#FEE2A6"/>
<stop offset="0.5201" stop-color="#FAC199"/>
<stop offset="0.6272" stop-color="#F7A98F"/>
<stop offset="0.7259" stop-color="#F59A89"/>
<stop offset="0.8081" stop-color="#F49587"/>
</linearGradient>
<linearGradient id="paint10_linear" x1="151.644" y1="50.1988" x2="149.542" y2="77.3258" gradientUnits="userSpaceOnUse">
<stop offset="0.0556" stop-color="#F7AA90"/>
<stop offset="0.1111" stop-color="#F9B996"/>
<stop offset="0.2184" stop-color="#FCD09F"/>
<stop offset="0.32" stop-color="#FDDDA4"/>
<stop offset="0.4091" stop-color="#FEE2A6"/>
<stop offset="0.5201" stop-color="#FAC199"/>
<stop offset="0.6272" stop-color="#F7A98F"/>
<stop offset="0.7259" stop-color="#F59A89"/>
<stop offset="0.8081" stop-color="#F49587"/>
</linearGradient>
<linearGradient id="paint11_linear" x1="185.979" y1="72.6564" x2="242.493" y2="199.141" gradientUnits="userSpaceOnUse">
<stop stop-color="#FFE4A7"/>
<stop offset="0.0105" stop-color="#FFE2A6"/>
<stop offset="0.2656" stop-color="#FAC199"/>
<stop offset="0.5086" stop-color="#F7A98F"/>
<stop offset="0.7325" stop-color="#F59A89"/>
<stop offset="0.9192" stop-color="#F49587"/>
</linearGradient>
<linearGradient id="paint12_linear" x1="216.361" y1="132.1" x2="209.346" y2="125.131" gradientUnits="userSpaceOnUse">
<stop stop-color="#FFC954"/>
<stop offset="1" stop-color="#D45D22"/>
</linearGradient>
<linearGradient id="paint13_linear" x1="195.975" y1="108.08" x2="204.323" y2="116.704" gradientUnits="userSpaceOnUse">
<stop stop-color="#FFC954"/>
<stop offset="1" stop-color="#D45D22"/>
</linearGradient>
<linearGradient id="paint14_linear" x1="212.658" y1="114.296" x2="208.526" y2="119.162" gradientUnits="userSpaceOnUse">
<stop stop-color="#FFC954"/>
<stop offset="1" stop-color="#D45D22"/>
</linearGradient>
<linearGradient id="paint15_linear" x1="210.716" y1="119.318" x2="187.901" y2="130.24" gradientUnits="userSpaceOnUse">
<stop stop-color="#FFE585"/>
<stop offset="1" stop-color="#FF9E6E"/>
</linearGradient>
<radialGradient id="paint16_radial" cx="0" cy="0" r="1" gradientUnits="userSpaceOnUse" gradientTransform="translate(206.672 119.427) scale(6.28607 6.35462)">
<stop stop-color="#FFE585"/>
<stop offset="0.0152231" stop-color="#F7DE81"/>
<stop offset="0.132" stop-color="#BEAA63"/>
<stop offset="0.252" stop-color="#8B7D49"/>
<stop offset="0.3727" stop-color="#605732"/>
<stop offset="0.4942" stop-color="#3E3720"/>
<stop offset="0.6167" stop-color="#231F12"/>
<stop offset="0.7407" stop-color="#0F0E08"/>
<stop offset="0.8672" stop-color="#040302"/>
<stop offset="1"/>
</radialGradient>
<linearGradient id="paint17_linear" x1="229.625" y1="141.525" x2="222.61" y2="134.556" gradientUnits="userSpaceOnUse">
<stop stop-color="#FFC954"/>
<stop offset="1" stop-color="#D45D22"/>
</linearGradient>
<linearGradient id="paint18_linear" x1="209.239" y1="117.505" x2="217.587" y2="126.128" gradientUnits="userSpaceOnUse">
<stop stop-color="#FFC954"/>
<stop offset="1" stop-color="#D45D22"/>
</linearGradient>
<linearGradient id="paint19_linear" x1="225.922" y1="123.721" x2="221.791" y2="128.587" gradientUnits="userSpaceOnUse">
<stop stop-color="#FFC954"/>
<stop offset="1" stop-color="#D45D22"/>
</linearGradient>
<linearGradient id="paint20_linear" x1="223.981" y1="128.743" x2="201.166" y2="139.665" gradientUnits="userSpaceOnUse">
<stop stop-color="#FFE585"/>
<stop offset="1" stop-color="#FF9E6E"/>
</linearGradient>
<radialGradient id="paint21_radial" cx="0" cy="0" r="1" gradientUnits="userSpaceOnUse" gradientTransform="translate(219.936 128.852) scale(6.28607 6.35462)">
<stop stop-color="#FFE585"/>
<stop offset="0.0152231" stop-color="#F7DE81"/>
<stop offset="0.132" stop-color="#BEAA63"/>
<stop offset="0.252" stop-color="#8B7D49"/>
<stop offset="0.3727" stop-color="#605732"/>
<stop offset="0.4942" stop-color="#3E3720"/>
<stop offset="0.6167" stop-color="#231F12"/>
<stop offset="0.7407" stop-color="#0F0E08"/>
<stop offset="0.8672" stop-color="#040302"/>
<stop offset="1"/>
</radialGradient>
<linearGradient id="paint22_linear" x1="242.483" y1="150.807" x2="235.468" y2="143.838" gradientUnits="userSpaceOnUse">
<stop stop-color="#FFC954"/>
<stop offset="1" stop-color="#D45D22"/>
</linearGradient>
<linearGradient id="paint23_linear" x1="222.097" y1="126.786" x2="230.445" y2="135.409" gradientUnits="userSpaceOnUse">
<stop stop-color="#FFC954"/>
<stop offset="1" stop-color="#D45D22"/>
</linearGradient>
<linearGradient id="paint24_linear" x1="238.779" y1="133.003" x2="234.648" y2="137.869" gradientUnits="userSpaceOnUse">
<stop stop-color="#FFC954"/>
<stop offset="1" stop-color="#D45D22"/>
</linearGradient>
<linearGradient id="paint25_linear" x1="236.838" y1="138.025" x2="214.023" y2="148.947" gradientUnits="userSpaceOnUse">
<stop stop-color="#FFE585"/>
<stop offset="1" stop-color="#FF9E6E"/>
</linearGradient>
<radialGradient id="paint26_radial" cx="0" cy="0" r="1" gradientUnits="userSpaceOnUse" gradientTransform="translate(232.794 138.134) scale(6.28606 6.35462)">
<stop stop-color="#FFE585"/>
<stop offset="0.0152231" stop-color="#F7DE81"/>
<stop offset="0.132" stop-color="#BEAA63"/>
<stop offset="0.252" stop-color="#8B7D49"/>
<stop offset="0.3727" stop-color="#605732"/>
<stop offset="0.4942" stop-color="#3E3720"/>
<stop offset="0.6167" stop-color="#231F12"/>
<stop offset="0.7407" stop-color="#0F0E08"/>
<stop offset="0.8672" stop-color="#040302"/>
<stop offset="1"/>
</radialGradient>
<linearGradient id="paint27_linear" x1="202.263" y1="123.885" x2="195.248" y2="116.917" gradientUnits="userSpaceOnUse">
<stop stop-color="#FFC954"/>
<stop offset="1" stop-color="#D45D22"/>
</linearGradient>
<linearGradient id="paint28_linear" x1="181.877" y1="99.8666" x2="190.225" y2="108.49" gradientUnits="userSpaceOnUse">
<stop stop-color="#FFC954"/>
<stop offset="1" stop-color="#D45D22"/>
</linearGradient>
<linearGradient id="paint29_linear" x1="198.56" y1="106.082" x2="194.428" y2="110.949" gradientUnits="userSpaceOnUse">
<stop stop-color="#FFC954"/>
<stop offset="1" stop-color="#D45D22"/>
</linearGradient>
<linearGradient id="paint30_linear" x1="196.617" y1="111.104" x2="173.802" y2="122.026" gradientUnits="userSpaceOnUse">
<stop stop-color="#FFE585"/>
<stop offset="1" stop-color="#FF9E6E"/>
</linearGradient>
<radialGradient id="paint31_radial" cx="0" cy="0" r="1" gradientUnits="userSpaceOnUse" gradientTransform="translate(192.393 110.578) scale(6.28608 6.35462)">
<stop stop-color="#FFE585"/>
<stop offset="0.0152231" stop-color="#F7DE81"/>
<stop offset="0.132" stop-color="#BEAA63"/>
<stop offset="0.252" stop-color="#8B7D49"/>
<stop offset="0.3727" stop-color="#605732"/>
<stop offset="0.4942" stop-color="#3E3720"/>
<stop offset="0.6167" stop-color="#231F12"/>
<stop offset="0.7407" stop-color="#0F0E08"/>
<stop offset="0.8672" stop-color="#040302"/>
<stop offset="1"/>
</radialGradient>
<linearGradient id="paint32_linear" x1="188.04" y1="115.641" x2="181.026" y2="108.672" gradientUnits="userSpaceOnUse">
<stop stop-color="#FFC954"/>
<stop offset="1" stop-color="#D45D22"/>
</linearGradient>
<linearGradient id="paint33_linear" x1="167.655" y1="91.6211" x2="176.003" y2="100.244" gradientUnits="userSpaceOnUse">
<stop stop-color="#FFC954"/>
<stop offset="1" stop-color="#D45D22"/>
</linearGradient>
<linearGradient id="paint34_linear" x1="184.339" y1="97.8377" x2="180.208" y2="102.704" gradientUnits="userSpaceOnUse">
<stop stop-color="#FFC954"/>
<stop offset="1" stop-color="#D45D22"/>
</linearGradient>
<linearGradient id="paint35_linear" x1="182.397" y1="102.86" x2="159.582" y2="113.782" gradientUnits="userSpaceOnUse">
<stop stop-color="#FFE585"/>
<stop offset="1" stop-color="#FF9E6E"/>
</linearGradient>
<radialGradient id="paint36_radial" cx="0" cy="0" r="1" gradientUnits="userSpaceOnUse" gradientTransform="translate(178.264 102.334) scale(6.28608 6.35462)">
<stop stop-color="#FFE585"/>
<stop offset="0.0152231" stop-color="#F7DE81"/>
<stop offset="0.132" stop-color="#BEAA63"/>
<stop offset="0.252" stop-color="#8B7D49"/>
<stop offset="0.3727" stop-color="#605732"/>
<stop offset="0.4942" stop-color="#3E3720"/>
<stop offset="0.6167" stop-color="#231F12"/>
<stop offset="0.7407" stop-color="#0F0E08"/>
<stop offset="0.8672" stop-color="#040302"/>
<stop offset="1"/>
</radialGradient>
<clipPath id="clip0">
<rect width="404" height="342" fill="white"/>
</clipPath>
<clipPath id="clip1">
<rect width="68" height="52" fill="white" transform="translate(172 96)"/>
</clipPath>
</defs>
</svg>
